<svg width="159" height="44" viewBox="0 0 159 44" fill="none" xmlns="http://www.w3.org/2000/svg">
<path fill-rule="evenodd" clip-rule="evenodd" d="M8 0V2.73771H2.73779L2.73779 8H7.88053e-05L7.90353e-05 2.73771H0V0H7.9155e-05H2.73779H8ZM90.2811 31.7244V17.6132H93.6608V31.7244H90.2811ZM91.9803 15.6105C91.445 15.6105 90.9844 15.4359 90.5985 15.0868C90.2127 14.7316 90.0197 14.3059 90.0197 13.8098C90.0197 13.3076 90.2127 12.8819 90.5985 12.5328C90.9844 12.1776 91.445 12 91.9803 12C92.5218 12 92.9823 12.1776 93.362 12.5328C93.7479 12.8819 93.9408 13.3076 93.9408 13.8098C93.9408 14.3059 93.7479 14.7316 93.362 15.0868C92.9823 15.4359 92.5218 15.6105 91.9803 15.6105ZM15 31.7244V12.9095H27.4356V15.7667H18.4637V20.8746H26.7914V23.7317H18.4637V28.8672H27.5103V31.7244H15ZM39.5118 20.9481V23.6858H30.9039V20.9481H39.5118ZM43.2158 12.9095V31.7244H46.6795V24.8342H50.2041L53.9616 31.7244H57.8267L53.6912 24.2756C53.8156 24.2262 53.9369 24.1736 54.055 24.1176C55.0633 23.6337 55.8257 22.9508 56.3423 22.0689C56.8651 21.1808 57.1265 20.1335 57.1265 18.927C57.1265 17.7265 56.8682 16.6762 56.3516 15.7758C55.8413 14.8694 55.085 14.1651 54.083 13.6628C53.0871 13.1606 51.8548 12.9095 50.3859 12.9095H43.2158ZM46.6795 22.0046H49.8724C50.7313 22.0046 51.4347 21.8882 51.9824 21.6555C52.5301 21.4166 52.9346 21.0706 53.1961 20.6174C53.4637 20.158 53.5975 19.5945 53.5975 18.927C53.5975 18.2594 53.4637 17.6898 53.1961 17.2182C52.9284 16.7405 52.5207 16.3791 51.973 16.1341C51.4253 15.883 50.7189 15.7575 49.8538 15.7575H46.6795V22.0046ZM66.3085 32C64.8708 32 63.6291 31.706 62.5834 31.1181C61.544 30.524 60.7442 29.6849 60.1841 28.6008C59.6239 27.5106 59.3438 26.2275 59.3438 24.7515C59.3438 23.3 59.6239 22.026 60.1841 20.9297C60.7505 19.8273 61.5409 18.9698 62.5554 18.3574C63.5699 17.7388 64.7618 17.4295 66.1311 17.4295C67.0149 17.4295 67.849 17.5704 68.6332 17.8521C69.4236 18.1277 70.1207 18.5564 70.7245 19.1383C71.3344 19.7201 71.8137 20.4612 72.1622 21.3615C72.5108 22.2557 72.685 23.3214 72.685 24.5586V25.5783H62.696C62.7059 26.3637 62.8582 27.0405 63.1529 27.6086C63.4579 28.1905 63.8843 28.6376 64.432 28.9499C64.9797 29.2562 65.6208 29.4093 66.3552 29.4093C66.8469 29.4093 67.2919 29.3419 67.6902 29.2072C68.0886 29.0663 68.434 28.8611 68.7265 28.5916C69.0191 28.3222 69.24 27.9884 69.3894 27.5903L72.545 27.9394C72.3458 28.7601 71.9661 29.4767 71.406 30.0891C70.8521 30.6955 70.1425 31.167 69.2774 31.5039C68.4122 31.8346 67.4226 32 66.3085 32ZM63.1343 21.8025C62.8788 22.2724 62.7348 22.7838 62.7024 23.3367H69.4454C69.4392 22.6997 69.2992 22.1332 69.0253 21.6371C68.7514 21.1349 68.3687 20.7399 67.877 20.452C67.3915 20.1641 66.8251 20.0202 66.1778 20.0202C65.4869 20.0202 64.8801 20.1856 64.3573 20.5163C63.8345 20.8409 63.4268 21.2696 63.1343 21.8025ZM82.8356 31.7244L87.9425 17.6132H84.3481L81.0431 28.0955H80.8937L77.5981 17.6132H73.9944L79.1012 31.7244H82.8356ZM105.389 21.6739L108.47 21.3431C108.24 20.1427 107.639 19.1903 106.668 18.486C105.703 17.7817 104.381 17.4295 102.7 17.4295C101.555 17.4295 100.544 17.6071 99.6662 17.9623C98.7948 18.3114 98.1133 18.8075 97.6216 19.4506C97.1361 20.0876 96.8965 20.8409 96.9027 21.7106C96.8965 22.7395 97.2232 23.5909 97.883 24.2646C98.5427 24.9322 99.5604 25.4068 100.936 25.6886L103.382 26.1938C104.042 26.3347 104.527 26.5368 104.838 26.8002C105.156 27.0635 105.314 27.3973 105.314 27.8016C105.314 28.2793 105.069 28.6804 104.577 29.0051C104.091 29.3297 103.447 29.492 102.644 29.492C101.866 29.492 101.235 29.3297 100.749 29.0051C100.264 28.6804 99.9463 28.1997 99.7969 27.5627L96.5013 27.8751C96.7066 29.1735 97.3446 30.1871 98.4151 30.9159C99.4857 31.6386 100.899 32 102.654 32C103.849 32 104.907 31.8101 105.828 31.4304C106.749 31.0507 107.468 30.524 107.985 29.8503C108.507 29.1704 108.772 28.3865 108.778 27.4984C108.772 26.4878 108.436 25.6702 107.77 25.0455C107.11 24.4208 106.102 23.9645 104.745 23.6766L102.299 23.1621C101.571 22.9968 101.048 22.7855 100.73 22.5282C100.419 22.271 100.267 21.9372 100.273 21.5269C100.267 21.0491 100.5 20.6602 100.973 20.3601C101.452 20.06 102.044 19.91 102.747 19.91C103.27 19.91 103.712 19.9927 104.073 20.158C104.434 20.3234 104.72 20.5408 104.932 20.8103C105.15 21.0798 105.302 21.3676 105.389 21.6739ZM111.565 31.7244V17.6132H114.945V31.7244H111.565ZM113.264 15.6105C112.729 15.6105 112.268 15.4359 111.882 15.0868C111.496 14.7316 111.304 14.3059 111.304 13.8098C111.304 13.3076 111.496 12.8819 111.882 12.5328C112.268 12.1776 112.729 12 113.264 12C113.806 12 114.266 12.1776 114.646 12.5328C115.032 12.8819 115.225 13.3076 115.225 13.8098C115.225 14.3059 115.032 14.7316 114.646 15.0868C114.266 15.4359 113.806 15.6105 113.264 15.6105ZM121.034 31.0905C122.061 31.6968 123.275 32 124.675 32C126.075 32 127.289 31.6968 128.316 31.0905C129.343 30.4842 130.137 29.6359 130.697 28.5457C131.263 27.4555 131.546 26.1816 131.546 24.7239C131.546 23.2663 131.263 21.9893 130.697 20.893C130.137 19.7967 129.343 18.9453 128.316 18.339C127.289 17.7327 126.075 17.4295 124.675 17.4295C123.275 17.4295 122.061 17.7327 121.034 18.339C120.007 18.9453 119.21 19.7967 118.644 20.893C118.084 21.9893 117.804 23.2663 117.804 24.7239C117.804 26.1816 118.084 27.4555 118.644 28.5457C119.21 29.6359 120.007 30.4842 121.034 31.0905ZM126.598 28.7203C126.088 29.1306 125.453 29.3358 124.694 29.3358C123.916 29.3358 123.268 29.1306 122.752 28.7203C122.241 28.3038 121.859 27.7464 121.604 27.0482C121.355 26.35 121.23 25.5722 121.23 24.7147C121.23 23.8512 121.355 23.0703 121.604 22.3721C121.859 21.6677 122.241 21.1073 122.752 20.6909C123.268 20.2744 123.916 20.0661 124.694 20.0661C125.453 20.0661 126.088 20.2744 126.598 20.6909C127.109 21.1073 127.488 21.6677 127.737 22.3721C127.992 23.0703 128.12 23.8512 128.12 24.7147C128.12 25.5722 127.992 26.35 127.737 27.0482C127.488 27.7464 127.109 28.3038 126.598 28.7203ZM137.795 31.7244H134.415V17.6132H137.645V20.011H137.813C138.143 19.2209 138.669 18.5932 139.391 18.1277C140.119 17.6622 141.019 17.4295 142.089 17.4295C143.079 17.4295 143.941 17.6377 144.675 18.0542C145.416 18.4707 145.988 19.074 146.393 19.864C146.804 20.6541 147.006 21.6126 147 22.7395V31.7244H143.62V23.254C143.62 22.3108 143.371 21.5728 142.873 21.04C142.382 20.5071 141.7 20.2407 140.829 20.2407C140.237 20.2407 139.712 20.3693 139.251 20.6265C138.797 20.8777 138.439 21.2421 138.177 21.7198C137.922 22.1975 137.795 22.7763 137.795 23.4561V31.7244ZM159 8H156.262V2.73828L151 2.73828V0.000566737L156.262 0.000567197V0H159V0.000567436V2.73828V8ZM0 36H2.73771L2.73771 41.2617H8V43.9994H2.73771V44H0V43.9994V41.2617V36ZM151 44V41.2623H156.262V36H159L159 41.2623V44H156.262H151Z" fill="#3185FC"/>
</svg>
