<svg width="44" height="44" viewBox="0 0 44 44" fill="none" xmlns="http://www.w3.org/2000/svg">
<circle cx="22" cy="22" r="22" fill="#3185FC"/>
<g clip-path="url(#clip0_134_1546)">
<path d="M25 20C25 19.45 25.45 19 26 19C26.55 19 27 19.45 27 20C27 20.55 26.55 21 26 21C25.45 21 25 20.55 25 20ZM18 19H23V17H18V19ZM32 17.5V24.47L29.18 25.41L27.5 31H22V29H20V31H14.5C14.5 31 12 22.54 12 19.5C12 16.46 14.46 14 17.5 14H22.5C23.41 12.79 24.86 12 26.5 12C27.33 12 28 12.67 28 13.5C28 13.71 27.96 13.9 27.88 14.08C27.74 14.42 27.62 14.81 27.56 15.23L29.83 17.5H32ZM30 19.5H29L25.5 16C25.5 15.35 25.59 14.71 25.76 14.09C24.79 14.34 24 15.06 23.67 16H17.5C15.57 16 14 17.57 14 19.5C14 21.38 15.22 26.15 16.01 29H18V27H24V29H26.01L27.56 23.85L30 23.03V19.5Z" fill="white"/>
</g>
<defs>
<clipPath id="clip0_134_1546">
<rect width="24" height="24" fill="white" transform="translate(10 10)"/>
</clipPath>
</defs>
</svg>
