<svg width="44" height="44" viewBox="0 0 44 44" fill="none" xmlns="http://www.w3.org/2000/svg">
<circle cx="22" cy="22" r="22" fill="#3185FC"/>
<g clip-path="url(#clip0_134_1543)">
<path d="M22.4996 18H20.9996V24L25.7496 26.85L26.4996 25.62L22.4996 23.25V18ZM27.3366 11.81L31.9436 15.655L30.6636 17.19L26.0536 13.347L27.3366 11.81ZM16.6626 11.81L17.9446 13.346L13.3366 17.19L12.0566 15.654L16.6626 11.81ZM21.9996 14C17.0296 14 12.9996 18.03 12.9996 23C12.9996 27.97 17.0296 32 21.9996 32C26.9696 32 30.9996 27.97 30.9996 23C30.9996 18.03 26.9696 14 21.9996 14ZM21.9996 30C18.1396 30 14.9996 26.86 14.9996 23C14.9996 19.14 18.1396 16 21.9996 16C25.8596 16 28.9996 19.14 28.9996 23C28.9996 26.86 25.8596 30 21.9996 30Z" fill="white"/>
</g>
<defs>
<clipPath id="clip0_134_1543">
<rect width="24" height="24" fill="white" transform="translate(10 10)"/>
</clipPath>
</defs>
</svg>
