<svg width="44" height="44" viewBox="0 0 44 44" fill="none" xmlns="http://www.w3.org/2000/svg">
<circle cx="22" cy="22" r="22" fill="#3185FC"/>
<g clip-path="url(#clip0_134_1545)">
<path d="M31.2897 15.89L21.2897 25.89C20.8997 26.28 20.2697 26.28 19.8797 25.89L17.0497 23.06C16.6597 22.67 16.6597 22.04 17.0497 21.65C17.4397 21.26 18.0697 21.26 18.4597 21.65L20.5797 23.77L29.8697 14.48C30.2597 14.09 30.8897 14.09 31.2797 14.48C31.6797 14.87 31.6797 15.5 31.2897 15.89ZM25.7697 12.74C24.0797 12.05 22.1597 11.81 20.1597 12.17C16.0897 12.9 12.8397 16.18 12.1497 20.25C11.0097 27 16.6297 32.78 23.3397 31.91C27.2997 31.4 30.6197 28.45 31.6597 24.6C32.0597 23.13 32.0997 21.71 31.8697 20.38C31.7397 19.58 30.7497 19.27 30.1697 19.84C29.9397 20.07 29.8397 20.41 29.8997 20.73C30.1197 22.06 30.0197 23.48 29.3797 24.99C28.2197 27.7 25.6997 29.69 22.7697 29.96C17.6697 30.43 13.4397 26.11 14.0697 20.98C14.4997 17.44 17.3497 14.56 20.8797 14.07C22.6097 13.83 24.2497 14.16 25.6497 14.88C26.0397 15.08 26.5097 15.01 26.8197 14.7C27.2997 14.22 27.1797 13.41 26.5797 13.1C26.3097 12.98 26.0397 12.85 25.7697 12.74Z" fill="white"/>
</g>
<defs>
<clipPath id="clip0_134_1545">
<rect width="24" height="24" fill="white" transform="translate(10 10)"/>
</clipPath>
</defs>
</svg>
