<svg width="44" height="44" viewBox="0 0 44 44" fill="none" xmlns="http://www.w3.org/2000/svg">
<circle cx="22" cy="22" r="22" fill="#3185FC"/>
<g clip-path="url(#clip0_134_1544)">
<path d="M25.5 11H17.5C16.12 11 15 12.12 15 13.5V30.5C15 31.88 16.12 33 17.5 33H25.5C26.88 33 28 31.88 28 30.5V13.5C28 12.12 26.88 11 25.5 11ZM21.5 32C20.67 32 20 31.33 20 30.5C20 29.67 20.67 29 21.5 29C22.33 29 23 29.67 23 30.5C23 31.33 22.33 32 21.5 32ZM26 28H17V14H26V28Z" fill="white"/>
</g>
<defs>
<clipPath id="clip0_134_1544">
<rect width="24" height="24" fill="white" transform="translate(10 10)"/>
</clipPath>
</defs>
</svg>
